<svg xmlns="http://www.w3.org/2000/svg" viewBox="0 0 657.05 144.6"><defs><style>.cls-1{fill:#fff;}</style></defs><g id="Layer_2" data-name="Layer 2"><g id="Layer_1-2" data-name="Layer 1"><g id="Layer_2-2" data-name="Layer 2"><g id="Layer_1-2-2" data-name="Layer 1-2"><g id="blue-tractor-logo"><path class="cls-1" d="M149,108.48H129.55V63.71H148c8.7,0,14.52,4.29,14.52,11v.13c0,6.07-4,9.14-7.61,10.62,5.37,1.4,10.1,4.47,10.1,10.67v.13C165,103.74,158.65,108.48,149,108.48ZM159.16,75c0-4.92-4-8.25-11.19-8.25H132.88V84.37h14.77c6.71,0,11.51-3.26,11.51-9.21Zm2.49,21.1c0-5.5-4.79-8.69-13.62-8.69H132.88v18h16.24c7.67,0,12.53-3.52,12.53-9.15Z"/><path class="cls-1" d="M175.73,108.48V63.71h3.32v41.7h26.29v3.07Z"/><path class="cls-1" d="M231.69,109.18c-10.75,0-18.36-6.78-18.36-19.31V63.71h3.33V89.55c0,10.55,5.69,16.62,15.15,16.62,9.09,0,14.91-5.5,14.91-16.3V63.71H250V89.48C250,102.34,242.56,109.18,231.69,109.18Z"/><path class="cls-1" d="M262.64,108.48V63.71h31.85v3.07H266V84.37h25.64v3.07H266v18h28.84v3.07Z"/><path class="cls-1" d="M340.41,66.78v41.7h-3.33V66.78h-15.6V63.71H356v3.07Z"/><path class="cls-1" d="M398.35,108.48,384.09,89.93H369.45v18.55h-3.33V63.71h18.8c9.66,0,16,5.25,16,12.73v.12c0,7.49-5.56,11.77-13.11,12.8l14.77,19.12Zm-.77-31.92c0-6-4.73-9.78-12.85-9.78H369.45V86.93h15.09c7.48,0,13-3.78,13-10.24Z"/><path class="cls-1" d="M449.77,108.48l-5.69-12.54H417.67L412,108.48h-3.46l20.85-45.09h3.2l20.85,45.09ZM430.91,67,419.08,92.9h23.59Z"/><path class="cls-1" d="M480.6,109.24c-12.79,0-22.25-10.16-22.25-23v-.13c0-12.66,9.46-23.15,22.38-23.15,8,0,12.79,3,17.39,7.17l-2.36,2.43c-3.9-3.78-8.38-6.59-15.1-6.59-10.74,0-18.86,8.76-18.86,20v.13c0,11.32,8.25,20.15,18.93,20.15,6.46,0,10.87-2.5,15.41-7l2.24,2.17C493.65,106.11,488.53,109.24,480.6,109.24Z"/><path class="cls-1" d="M523.26,66.78v41.7h-3.33V66.78h-15.6V63.71h34.53v3.07Z"/><path class="cls-1" d="M565.92,109.24c-13.56,0-22.45-10.8-22.45-23v-.13c0-12.21,9-23.15,22.57-23.15s22.45,10.81,22.45,23c.07.07.07.07,0,.13C588.49,98.31,579.47,109.24,565.92,109.24ZM585,86.09C585,75,577,66,565.92,66s-19,9-19,20v.13c0,11.07,8.06,20.15,19.12,20.15s19-9,19-20Z"/><path class="cls-1" d="M632.05,108.48,617.79,89.93H603.14v18.55h-3.32V63.71h18.8c9.65,0,16,5.25,16,12.73v.12c0,7.49-5.56,11.77-13.1,12.8l14.77,19.12Zm-.77-31.92c0-6-4.73-9.78-12.86-9.78H603.14V86.93h15.09c7.49,0,13-3.78,13-10.24Z"/><path class="cls-1" d="M61.79,28.78V57.57a29.36,29.36,0,0,1,0,58.25V144.6a58,58,0,0,0,0-115.82Z"/><path class="cls-1" d="M28.66,0H0V86.69A58,58,0,0,0,54.27,144.6V115.82A29.37,29.37,0,0,1,28.66,86.69V57.32H54.27V28.66H28.66Z"/><path class="cls-1" d="M645,52.44h4a3.29,3.29,0,0,1,2.3.82,2.73,2.73,0,0,1,.89,2.08,2.77,2.77,0,0,1-.65,1.83,3.06,3.06,0,0,1-1.73,1L652.62,62h-1.26l-2.7-3.76h-2.57V62H645Zm1.07.91v4.08h2.78a2.39,2.39,0,0,0,1.65-.58,2,2,0,0,0,.1-2.83l-.1-.1a2.38,2.38,0,0,0-1.65-.57Z"/><path class="cls-1" d="M648.13,66.16a8.92,8.92,0,1,1,8.92-8.92h0A8.94,8.94,0,0,1,648.13,66.16Zm0-17.11a8.2,8.2,0,1,0,8.2,8.2h0A8.21,8.21,0,0,0,648.13,49.05Z"/></g></g></g></g></g></svg>