<svg xmlns="http://www.w3.org/2000/svg" width="46.504" height="38.692" viewBox="0 0 46.504 38.692">
  <path id="news-icon-growth" d="M6320.388,10357.971H6286a.749.749,0,0,1-.749-.751v-18.636a.752.752,0,0,1,.556-.726l8.6-2.282,7.616-2.024a.769.769,0,0,1,.458.022l.98.369,8.508,3.206,8.155-3.1,8.594-3.265a.758.758,0,0,1,.694.086.743.743,0,0,1,.322.616v25.729a.749.749,0,0,1-.749.751Zm.751-22.7v21.2h7.094v-23.895Zm-8.6,3.262v17.937h7.094v-20.629Zm-8.6,17.937h7.1V10338.4l-7.1-2.673Zm-8.594-19.595v19.595h7.094v-21.308l-.268-.1Zm-8.6,2.285v17.31h7.1v-19.194Zm-1.476-7.973a.746.746,0,0,1,.533-.915l16.213-4.308a.747.747,0,0,1,.458.023l9.491,3.574,16.07-6.1-3.847-1.7a.75.75,0,0,1,.606-1.373l5.5,2.429a.75.75,0,0,1,.385.987l-2.428,5.5a.751.751,0,0,1-.686.447.736.736,0,0,1-.3-.064.751.751,0,0,1-.385-.988l1.7-3.845-16.346,6.208a.751.751,0,0,1-.53,0l-9.53-3.59-15.982,4.247a.81.81,0,0,1-.192.023A.75.75,0,0,1,6285.277,10331.188Z" transform="translate(-6284.749 -10319.778)" fill="#253746" stroke="rgba(0,0,0,0)" stroke-miterlimit="10" stroke-width="1"/>
</svg>
