<svg xmlns="http://www.w3.org/2000/svg" width="35.368" height="35.368" viewBox="0 0 35.368 35.368">
  <path id="news-icon-ETF" d="M818.026,609.857a3.537,3.537,0,1,0,3.537,3.537A3.541,3.541,0,0,0,818.026,609.857Zm0,5.659a2.122,2.122,0,1,1,2.122-2.122A2.124,2.124,0,0,1,818.026,615.516Zm14.147-5.659a3.537,3.537,0,1,0,3.537,3.537A3.541,3.541,0,0,0,832.173,609.857Zm0,5.659a2.122,2.122,0,1,1,2.122-2.122A2.124,2.124,0,0,1,832.173,615.516Zm14.147-5.659a3.537,3.537,0,1,0,3.537,3.537A3.541,3.541,0,0,0,846.32,609.857Zm0,5.659a2.122,2.122,0,1,1,2.122-2.122A2.124,2.124,0,0,1,846.32,615.516ZM818.026,624a3.537,3.537,0,1,0,3.537,3.537A3.541,3.541,0,0,0,818.026,624Zm0,5.659a2.122,2.122,0,1,1,2.122-2.122A2.124,2.124,0,0,1,818.026,629.663ZM832.173,624a3.537,3.537,0,1,0,3.537,3.537A3.541,3.541,0,0,0,832.173,624Zm0,5.659a2.122,2.122,0,1,1,2.122-2.122A2.124,2.124,0,0,1,832.173,629.663ZM846.32,624a3.537,3.537,0,1,0,3.537,3.537A3.541,3.541,0,0,0,846.32,624Zm0,5.659a2.122,2.122,0,1,1,2.122-2.122A2.124,2.124,0,0,1,846.32,629.663Zm-28.294,8.488a3.537,3.537,0,1,0,3.537,3.537A3.541,3.541,0,0,0,818.026,638.151Zm0,5.659a2.122,2.122,0,1,1,2.122-2.122A2.124,2.124,0,0,1,818.026,643.81Zm14.147-5.659a3.537,3.537,0,1,0,3.537,3.537A3.541,3.541,0,0,0,832.173,638.151Zm0,5.659a2.122,2.122,0,1,1,2.122-2.122A2.124,2.124,0,0,1,832.173,643.81Zm14.147-5.659a3.537,3.537,0,1,0,3.537,3.537A3.541,3.541,0,0,0,846.32,638.151Zm0,5.659a2.122,2.122,0,1,1,2.122-2.122A2.124,2.124,0,0,1,846.32,643.81Z" transform="translate(-814.489 -609.857)" fill="#253746"/>
</svg>
