<svg xmlns="http://www.w3.org/2000/svg" width="41.771" height="41.769" viewBox="0 0 41.771 41.769">
  <path id="news-icon-control" d="M5140.193,9962.858a.813.813,0,0,1-.755-.508l-1.818-4.413-2.183-.9-4.408,1.836a.817.817,0,0,1-.89-.178l-3.613-3.61a.826.826,0,0,1-.178-.893l1.838-4.408-.905-2.181-4.413-1.817a.822.822,0,0,1-.507-.755v-5.108a.819.819,0,0,1,.507-.755l4.413-1.818.905-2.183-1.838-4.408a.82.82,0,0,1,.178-.89l3.613-3.613a.816.816,0,0,1,.89-.175l4.408,1.835,2.183-.905,1.818-4.413a.81.81,0,0,1,.755-.5h5.106a.817.817,0,0,1,.758.5l1.817,4.413,2.181.905,4.408-1.835a.821.821,0,0,1,.893.175l3.611,3.613a.811.811,0,0,1,.177.89l-1.837,4.408.9,2.183,4.416,1.818a.817.817,0,0,1,.5.755v5.108a.82.82,0,0,1-.5.755l-4.416,1.817-.9,2.181,1.837,4.408a.817.817,0,0,1-.177.893l-3.611,3.61a.821.821,0,0,1-.893.178l-4.408-1.836-2.181.9-1.817,4.413a.82.82,0,0,1-.758.508Zm-4.443-7.464,2.808,1.162a.817.817,0,0,1,.442.445l1.74,4.221h4.011l1.74-4.221a.816.816,0,0,1,.442-.445l2.808-1.162a.823.823,0,0,1,.628,0l4.215,1.755,2.84-2.835-1.757-4.216a.806.806,0,0,1,0-.63l1.163-2.806a.82.82,0,0,1,.445-.445l4.223-1.737v-4.013l-4.223-1.74a.823.823,0,0,1-.445-.443l-1.163-2.808a.8.8,0,0,1,0-.628l1.757-4.215-2.84-2.838-4.215,1.755a.805.805,0,0,1-.628,0l-2.808-1.163a.814.814,0,0,1-.442-.442l-1.74-4.223h-4.011l-1.74,4.223a.815.815,0,0,1-.442.442l-2.808,1.163a.8.8,0,0,1-.627,0l-4.216-1.755-2.838,2.838,1.755,4.215a.805.805,0,0,1,0,.628l-1.163,2.808a.819.819,0,0,1-.443.443l-4.223,1.74v4.013l4.223,1.737a.817.817,0,0,1,.443.445l1.163,2.806a.81.81,0,0,1,0,.63l-1.755,4.216,2.838,2.835,4.216-1.755a.831.831,0,0,1,.627,0Zm-1.75-12.922a8.748,8.748,0,1,1,8.747,8.749A8.758,8.758,0,0,1,5134,9942.473Zm1.635,0a7.112,7.112,0,1,0,7.111-7.113A7.119,7.119,0,0,0,5135.635,9942.473Z" transform="translate(-5121.861 -9921.59)" fill="#253746" stroke="rgba(0,0,0,0)" stroke-miterlimit="10" stroke-width="1"/>
</svg>
