<svg xmlns="http://www.w3.org/2000/svg" width="41.247" height="41.314" viewBox="0 0 41.247 41.314">
  <path id="news-icon-launch" d="M5359.522,10321.285a.754.754,0,0,1,.129-.886l3.759-3.756-1.437-2.4-1.464-1.461-.806,2.425a.8.8,0,0,1-.181.293l-2.386,2.383a.742.742,0,0,1-1.06,0l-5.96-5.958a.751.751,0,0,1,0-1.062l2.383-2.384a.743.743,0,0,1,.292-.181l2.425-.809-1.458-1.461-2.4-1.437-3.758,3.756a.74.74,0,0,1-.531.221.749.749,0,0,1-.733-.9l.94-4.715a4.949,4.949,0,0,1,5.554-3.927l4.2.6,3.909-6.143a17.658,17.658,0,0,1,14.123-8.157l6.852-.3,3.368-3.37a.749.749,0,0,1,1.06,1.06l-3.368,3.37-.3,6.85a17.631,17.631,0,0,1-8.157,14.122l-6.142,3.909.6,4.2a4.948,4.948,0,0,1-3.93,5.554l-4.712.943a.708.708,0,0,1-.147.016A.749.749,0,0,1,5359.522,10321.285Zm4.305-7.419-.244.153,1.415,2.354a.748.748,0,0,1-.114.914l-2.419,2.422,2.285-.458a3.42,3.42,0,0,0,1.761-.943,3.455,3.455,0,0,0,.974-2.927l-.5-3.523Zm-10.39-4.2-1.728,1.73,4.9,4.9,1.728-1.729.992-2.969-2.922-2.919Zm10.97-18.125a16.3,16.3,0,0,0-2.2,2.751l-4.168,6.549v0l-2.857,4.486,7.494,7.491,4.486-2.854h0l6.548-4.168a16.089,16.089,0,0,0,6.481-8.074,25.946,25.946,0,0,1-9.916-9.916A16.144,16.144,0,0,0,5364.407,10291.542Zm-14.716,9.95a3.436,3.436,0,0,0-.943,1.761l-.456,2.285,2.419-2.422a.752.752,0,0,1,.917-.111l2.352,1.411.156-.24,2.007-3.158-3.523-.5a3.391,3.391,0,0,0-.484-.034A3.469,3.469,0,0,0,5349.691,10301.492Zm25.433-14.662a16.1,16.1,0,0,0-3.38.521,24.331,24.331,0,0,0,8.908,8.906,16.181,16.181,0,0,0,.521-3.381l.277-6.323Zm-7.725,13.771a3.278,3.278,0,0,1,4.637-4.634,3.278,3.278,0,0,1-4.637,4.634Zm1.06-3.574a1.782,1.782,0,1,0,1.259-.521A1.775,1.775,0,0,0,5368.459,10297.026Z" transform="translate(-5345.813 -10280.867)" fill="#253746" stroke="rgba(0,0,0,0)" stroke-miterlimit="10" stroke-width="1"/>
</svg>
