<svg xmlns="http://www.w3.org/2000/svg" width="42.674" height="51.189" viewBox="0 0 42.674 51.189">
  <g id="ourSolution-icon-shielded" transform="translate(-745.877 -345.477)">
    <path id="Path_66765" data-name="Path 66765" d="M787.53,354.005c-5.465,0-17.81-5.766-19.469-8.121a1.059,1.059,0,0,0-1.67,0c-1.71,2.426-14.615,8.12-19.492,8.12a1.022,1.022,0,0,0-1.022,1.022v20.316c0,10.437,19.944,20.986,21.074,21.289a1.037,1.037,0,0,0,.527,0c.937-.251,21.074-11.577,21.074-20.22V355.027A1.022,1.022,0,0,0,787.53,354.005Zm-1.022,22.407c0,6.617-16.515,16.806-19.291,18.129-2.636-1.253-19.3-10.871-19.3-19.2V355.99c5.284-.563,15.812-4.98,19.3-8.037,3.4,3.02,13.577,7.523,19.285,8.046Z" transform="translate(0 0)" fill="#00c7b1"/>
    <path id="Path_66766" data-name="Path 66766" d="M760.825,387.169a1.021,1.021,0,0,0,1.249.727c1.222-.323,16.8-10.36,16.8-17.027V355.9a1.022,1.022,0,0,0-2.043,0v14.97c0,5.085-13.431,14.267-15.329,15.065A1.023,1.023,0,0,0,760.825,387.169Z" transform="translate(5.401 3.404)" fill="#00c7b1"/>
    <path id="Path_66767" data-name="Path 66767" d="M765.244,350.6c-1.271,1.788-11.326,5.985-15.205,5.985a1.022,1.022,0,0,0-1.022,1.022v16.039a1.022,1.022,0,1,0,2.043,0v-15.08c4.83-.545,14.2-4.464,15.85-6.782a1.022,1.022,0,0,0-1.666-1.184Z" transform="translate(1.137 1.699)" fill="#00c7b1"/>
    <path id="Path_66768" data-name="Path 66768" d="M757.826,365.234a1.021,1.021,0,0,0-1.445,1.444l4.277,4.277a1.023,1.023,0,0,0,.723.3h.03a1.016,1.016,0,0,0,.733-.342l8.554-9.624a1.021,1.021,0,1,0-1.527-1.357l-7.835,8.813Z" transform="translate(3.695 5.11)" fill="#00c7b1"/>
  </g>
</svg>
