<svg xmlns="http://www.w3.org/2000/svg" width="52.327" height="47.578" viewBox="0 0 52.327 47.578">
  <g id="ourSolution-icon-generate" transform="translate(-790.749 -346.543)">
    <g id="Group_969" data-name="Group 969" transform="translate(790.749 346.543)">
      <path id="Path_66769" data-name="Path 66769" d="M797.468,380.464a1.026,1.026,0,0,1-.838-.431l-5.691-7.964a1.03,1.03,0,0,1,.839-1.628h1.245v-.108a23.816,23.816,0,0,1,23.788-23.79,1.03,1.03,0,0,1,0,2.059,21.755,21.755,0,0,0-21.729,21.73v1.138a1.03,1.03,0,0,1-1.03,1.03h-.275l3.593,5.029,2.873-5.029h-.5a1.03,1.03,0,0,1-1.03-1.03v-1.138a18.1,18.1,0,0,1,33.411-9.653,1.03,1.03,0,1,1-1.741,1.1,16.041,16.041,0,0,0-29.611,8.553v.108h1.247a1.03,1.03,0,0,1,.894,1.54l-4.552,7.964a1.022,1.022,0,0,1-.842.518Z" transform="translate(-790.749 -346.543)" fill="#00c7b1"/>
    </g>
    <g id="Group_970" data-name="Group 970" transform="translate(801.539 360.2)">
      <path id="Path_66770" data-name="Path 66770" d="M814.08,390.411a1.03,1.03,0,0,1,0-2.059,21.754,21.754,0,0,0,21.729-21.729v-1.138a1.03,1.03,0,0,1,1.03-1.03h.275l-3.591-5.03-2.875,5.03h.5a1.03,1.03,0,0,1,1.03,1.03v1.138a18.1,18.1,0,0,1-33.412,9.651,1.03,1.03,0,0,1,1.742-1.1,16.041,16.041,0,0,0,29.611-8.553v-.108h-1.247a1.031,1.031,0,0,1-.9-1.54l4.553-7.966a1.024,1.024,0,0,1,.841-.518,1.048,1.048,0,0,1,.891.43l5.689,7.966a1.029,1.029,0,0,1-.838,1.628h-1.246v.108A23.815,23.815,0,0,1,814.08,390.411Z" transform="translate(-798.608 -356.491)" fill="#00c7b1"/>
    </g>
    <g id="Group_971" data-name="Group 971" transform="translate(810.094 364.751)">
      <path id="Path_66771" data-name="Path 66771" d="M810.421,372.106a1.025,1.025,0,0,1-.728-.3l-4.552-4.551A1.03,1.03,0,1,1,806.6,365.8l3.78,3.78,8.377-9.425a1.029,1.029,0,0,1,1.539,1.367l-9.1,10.242a1.026,1.026,0,0,1-.739.346Z" transform="translate(-804.839 -359.806)" fill="#00c7b1"/>
    </g>
  </g>
</svg>
