<svg xmlns="http://www.w3.org/2000/svg" width="26" height="27.5" viewBox="0 0 26 27.5">
  <g id="ourSolution-icon-download" transform="translate(-5 -5.001)">
    <path id="Union_43" data-name="Union 43" d="M11384,9698.5a4,4,0,0,1-4-4v-3a1,1,0,0,1,2,0v3a2,2,0,0,0,2,2h18a2,2,0,0,0,2-2v-3a1,1,0,0,1,2,0v3a4.005,4.005,0,0,1-4,4Zm9-7.5h-.049l-.041,0h-.007a1,1,0,0,1-.655-.336l-7.455-7.454a1,1,0,0,1,1.414-1.414l5.791,5.791V9672a1,1,0,0,1,2,0v15.586l5.794-5.793a1,1,0,0,1,1.414,1.414l-7.487,7.486a.992.992,0,0,1-.671.307Z" transform="translate(-11375 -9666)" fill="#fff"/>
  </g>
</svg>
