<svg xmlns="http://www.w3.org/2000/svg" width="56.368" height="35.829" viewBox="0 0 56.368 35.829">
  <g id="ourSolution-icon-turnkey" transform="translate(-692.1 -308.89)">
    <path id="Path_66761" data-name="Path 66761" d="M742.633,335.055h2.416a1,1,0,0,0,0-2h-1.8l-.929-1.862a1,1,0,0,0-.9-.554h-2.417a1,1,0,0,0-.9.554l-.931,1.862H735.8l-2.123-2.122a1,1,0,0,0-1.416,0l-2.123,2.122h-4.858a1,1,0,0,0-.9.572,15.911,15.911,0,1,1,0-13.636,1,1,0,0,0,.9.572h19.77a1,1,0,0,0,0-2H725.9a17.915,17.915,0,1,0,0,16.5h4.654a1.006,1.006,0,0,0,.708-.292l1.708-1.708,1.708,1.708a1,1,0,0,0,.708.292H737.8a1,1,0,0,0,.9-.553l.929-1.863h1.179l.931,1.863A1,1,0,0,0,742.633,335.055Z" transform="translate(0 0)" fill="#00c7b1"/>
    <path id="Path_66762" data-name="Path 66762" d="M735.024,312.509h-4.833a1,1,0,0,0-1,1v2.416a1,1,0,1,0,2,0v-1.414h2.83V336.67h-2.83v-1.414a1,1,0,1,0-2,0v2.416a1,1,0,0,0,1,1h4.833a1,1,0,0,0,1-1V313.511A1,1,0,0,0,735.024,312.509Z" transform="translate(12.442 1.214)" fill="#00c7b1"/>
    <path id="Path_66763" data-name="Path 66763" d="M737.158,319.746H716.622a1,1,0,0,0,0,2h20.537a1,1,0,0,0,0-2Z" transform="translate(7.89 3.642)" fill="#00c7b1"/>
    <path id="Path_66764" data-name="Path 66764" d="M703.361,317.937a5.833,5.833,0,1,0,5.835,5.833A5.84,5.84,0,0,0,703.361,317.937Zm0,9.663a3.83,3.83,0,1,1,3.832-3.83A3.835,3.835,0,0,1,703.361,327.6Z" transform="translate(1.821 3.035)" fill="#00c7b1"/>
  </g>
</svg>
