<svg xmlns="http://www.w3.org/2000/svg" width="55.092" height="55.092" viewBox="0 0 55.092 55.092">
  <path id="home-icon-strategy" d="M18242.506,8116.282v-.009c-.068-.169-.123-.334-.178-.509a13.662,13.662,0,0,1-.629-2.917,12.409,12.409,0,0,1-.092-1.554v-.042a14.346,14.346,0,1,1,.9,5.03Zm.7-4.989a12.738,12.738,0,1,0,12.742-12.742A12.752,12.752,0,0,0,18243.2,8111.293Zm12.225,8.771v-2.192a4.777,4.777,0,0,1-4.246-3.393.805.805,0,0,1,.643-.935.779.779,0,0,1,.756.28.743.743,0,0,1,.174.353c.006.023.514,2.026,3.449,2.173a2.6,2.6,0,0,0,2.906-2.022c.133-1.248-1.045-2.22-3.076-2.536-.266-.042-.523-.1-.771-.161-2.141-.523-3.393-1.71-3.365-3.255a3.76,3.76,0,0,1,3.361-3.659.7.7,0,0,1,.17-.023v-2.169a.8.8,0,1,1,1.6,0v2.183a4.544,4.544,0,0,1,3.645,2.843.8.8,0,0,1-.467,1.027.808.808,0,0,1-.9-.243.865.865,0,0,1-.123-.225,3.084,3.084,0,0,0-2.943-1.875,3.877,3.877,0,0,0-.7.055,2.255,2.255,0,0,0-2.045,2.109c-.014,1.3,2.324,1.742,2.8,1.811.207.037.4.069.582.11h.01c3.053.692,3.984,2.641,3.828,4.168a4.078,4.078,0,0,1-3.682,3.421v2.155a.8.8,0,1,1-1.6,0Zm-37.213-3a.8.8,0,0,1,0-1.6h22.021a16.334,16.334,0,0,0,.51,1.6Zm0-4.214a.8.8,0,0,1,0-1.6h21.477v.042c0,.527.027,1.041.078,1.554Zm19.326-5.007V8107a11.259,11.259,0,0,0-11.248-11.248.8.8,0,0,1,0-1.6,12.76,12.76,0,0,1,5.754,1.376v-4.7H18231a4.16,4.16,0,0,1-4.154-4.159.8.8,0,1,1,1.6,0,2.56,2.56,0,0,0,2.559,2.559h7.58a.8.8,0,0,1,.564.239l2.484,2.485,2.045-2.045v-2.389l-8.656-8.657a.8.8,0,0,1,1.127-1.128l1.17,1.165,2.439-2.439a13.2,13.2,0,0,0-21.973,9.886V8097.5l4.365,4.36a.816.816,0,0,1,.234.564v5.42a.8.8,0,1,1-1.6,0v-5.09l-4.365-4.36a.807.807,0,0,1-.234-.564v-11.472a14.814,14.814,0,0,1,25.287-10.478.789.789,0,0,1,0,1.128l-3.031,3.036,6.594,6.594a.79.79,0,0,1,.234.564v3.054a.772.772,0,0,1-.234.559l-2.842,2.843a.787.787,0,0,1-.564.234.8.8,0,0,1-.564-.234l-2.814-2.815h-4.609v5.644a12.83,12.83,0,0,1,5.494,10.519v.839a.8.8,0,1,1-1.6,0Zm-16.75-21.486a10.227,10.227,0,0,1,10.215-10.216.8.8,0,1,1,0,1.6,8.631,8.631,0,0,0-8.619,8.621.8.8,0,1,1-1.6,0Z" transform="translate(-18215.688 -8071.039)" fill="#00c7b1" stroke="rgba(0,0,0,0)" stroke-miterlimit="10" stroke-width="1"/>
</svg>
