<svg xmlns="http://www.w3.org/2000/svg" width="47.135" height="54.323" viewBox="0 0 47.135 54.323">
  <path id="home-info" d="M18387.135,7461.932a1.073,1.073,0,0,1-1.068-1.073v-51.176a1.072,1.072,0,0,1,1.068-1.073h43.992a1.075,1.075,0,0,1,1.074,1.073v51.176a1.075,1.075,0,0,1-1.074,1.073Zm.736-1.8h42.525v-49.714h-42.525Zm5.723-6.439a.9.9,0,1,1,0-1.8h13.215a.9.9,0,1,1,0,1.8Zm0-8.2a.9.9,0,1,1,0-1.8h31.08a.9.9,0,1,1,0,1.8Zm0-8.2a.9.9,0,1,1,0-1.8h31.08a.9.9,0,1,1,0,1.8Zm0-8.2a.9.9,0,1,1,0-1.8h31.08a.9.9,0,1,1,0,1.8Zm0-8.2a.9.9,0,1,1,0-1.8h31.08a.9.9,0,1,1,0,1.8Z" transform="translate(-18385.566 -7408.109)" fill="#00c7b1" stroke="rgba(0,0,0,0)" stroke-miterlimit="10" stroke-width="1"/>
</svg>
