<svg xmlns="http://www.w3.org/2000/svg" width="40.815" height="51.43" viewBox="0 0 40.815 51.43">
  <path id="home-icon-liquid-market" d="M896.905,662.025A12.94,12.94,0,0,1,883.979,649.1c0-6.883,11.677-20.273,12.174-20.839a1,1,0,0,1,.752-.341h0a1,1,0,0,1,.752.341c.5.566,12.173,13.956,12.173,20.839A12.94,12.94,0,0,1,896.905,662.025Zm0-31.571c-3.633,4.3-10.926,13.91-10.926,18.646a10.926,10.926,0,0,0,21.851,0C907.83,644.364,900.537,634.753,896.905,630.454Zm.407,15.173c-2.076-.7-2.986-1.146-2.986-2.441a.955.955,0,0,1,.143-.493,1.718,1.718,0,0,1,.488-.513,2.87,2.87,0,0,1,.847-.406,3.931,3.931,0,0,1,2.2,0,2.85,2.85,0,0,1,.846.406,1.708,1.708,0,0,1,.486.512,1,1,0,0,0,1.725-1.014,3.679,3.679,0,0,0-1.046-1.124,4.846,4.846,0,0,0-1.428-.693,5.513,5.513,0,0,0-.686-.153v-1.192a1,1,0,0,0-2,0v1.192a5.464,5.464,0,0,0-.683.152,4.864,4.864,0,0,0-1.429.693,3.685,3.685,0,0,0-1.047,1.123,2.938,2.938,0,0,0-.419,1.509c0,2.864,2.511,3.715,4.344,4.336,1.956.662,2.814,1.069,2.814,2.184a.935.935,0,0,1-.144.492,1.758,1.758,0,0,1-.488.514,2.887,2.887,0,0,1-.844.4,3.938,3.938,0,0,1-2.205,0,2.911,2.911,0,0,1-.844-.4,1.76,1.76,0,0,1-.491-.516,1,1,0,0,0-1.723,1.016,3.725,3.725,0,0,0,1.046,1.123,4.919,4.919,0,0,0,1.429.694,5.55,5.55,0,0,0,.684.151v1.161a1,1,0,0,0,2,0v-1.16a5.683,5.683,0,0,0,.687-.153,4.921,4.921,0,0,0,1.429-.7,3.713,3.713,0,0,0,1.041-1.117,2.928,2.928,0,0,0,.423-1.512C901.484,647.04,899.17,646.257,897.312,645.627Zm16.541,31.352c.842-1.041,1.371-1.629,2.459-1.629a1,1,0,0,0,0-2c-2.1,0-3.159,1.314-4.014,2.371-.841,1.04-1.371,1.629-2.46,1.629s-1.617-.589-2.459-1.629c-.855-1.057-1.919-2.371-4.015-2.371s-3.158,1.314-4.012,2.371c-.841,1.04-1.371,1.629-2.457,1.629s-1.614-.589-2.455-1.628c-.854-1.057-1.916-2.372-4.01-2.372s-3.157,1.314-4.012,2.371c-.84,1.04-1.369,1.629-2.456,1.629s-1.614-.589-2.455-1.629c-.854-1.057-1.916-2.371-4.01-2.371a1,1,0,0,0,0,2c1.086,0,1.614.588,2.455,1.629s1.916,2.371,4.01,2.371,3.158-1.315,4.012-2.371,1.37-1.629,2.456-1.629,1.614.588,2.455,1.629,1.916,2.371,4.01,2.371,3.158-1.315,4.012-2.371,1.37-1.629,2.457-1.629,1.618.588,2.46,1.629,1.919,2.371,4.014,2.371S913,678.035,913.853,676.979Zm0-8.2c.842-1.04,1.371-1.629,2.459-1.629a1,1,0,0,0,0-2c-2.1,0-3.159,1.315-4.014,2.372-.841,1.04-1.371,1.628-2.46,1.628s-1.617-.588-2.459-1.628c-.855-1.057-1.919-2.372-4.015-2.372s-3.158,1.315-4.012,2.372c-.841,1.04-1.371,1.628-2.457,1.628s-1.614-.588-2.455-1.628c-.854-1.056-1.916-2.372-4.01-2.372s-3.157,1.315-4.012,2.372c-.84,1.04-1.369,1.628-2.456,1.628s-1.614-.588-2.455-1.628c-.854-1.057-1.916-2.372-4.01-2.372a1,1,0,0,0,0,2c1.086,0,1.614.589,2.455,1.629.854,1.057,1.916,2.371,4.01,2.371s3.158-1.314,4.012-2.371c.841-1.04,1.37-1.629,2.456-1.629s1.614.589,2.455,1.629c.854,1.057,1.916,2.371,4.01,2.371s3.158-1.314,4.012-2.371c.841-1.04,1.37-1.629,2.457-1.629s1.618.589,2.46,1.629c.855,1.057,1.919,2.371,4.014,2.371S913,669.835,913.853,668.778Z" transform="translate(-876.497 -627.92)" fill="#00c7b1"/>
</svg>
