<svg xmlns="http://www.w3.org/2000/svg" width="50" height="50" viewBox="0 0 50 50">
  <g id="home-icon-ETF" transform="translate(-18738.002 -10795.999)" fill="none">
    <path d="M18778,10841a5,5,0,1,1,5,5A5,5,0,0,1,18778,10841Zm-20,0a5,5,0,1,1,5,5A5,5,0,0,1,18758,10841Zm-20,0a5,5,0,1,1,5,5A5,5,0,0,1,18738,10841Zm40-20a5,5,0,1,1,5,5A5,5,0,0,1,18778,10821Zm-20,0a5,5,0,1,1,5,5A5,5,0,0,1,18758,10821Zm-20,0a5,5,0,1,1,5,5A5,5,0,0,1,18738,10821Zm40-20a5,5,0,1,1,5,5A5,5,0,0,1,18778,10801Zm-20,0a5,5,0,1,1,5,5A5,5,0,0,1,18758,10801Zm-20,0a5,5,0,1,1,5,5A5,5,0,0,1,18738,10801Z" stroke="none"/>
    <path d="M 18782.998046875 10843.9990234375 C 18784.654296875 10843.9990234375 18786.001953125 10842.654296875 18786.001953125 10841.0009765625 C 18786.001953125 10839.3447265625 18784.654296875 10837.998046875 18782.998046875 10837.998046875 C 18781.345703125 10837.998046875 18780 10839.3447265625 18780 10841.0009765625 C 18780 10842.654296875 18781.345703125 10843.9990234375 18782.998046875 10843.9990234375 M 18763.001953125 10843.9990234375 C 18764.654296875 10843.9990234375 18766 10842.654296875 18766 10841.0009765625 C 18766 10839.3447265625 18764.654296875 10837.998046875 18763.001953125 10837.998046875 C 18761.345703125 10837.998046875 18759.998046875 10839.3447265625 18759.998046875 10841.0009765625 C 18759.998046875 10842.654296875 18761.345703125 10843.9990234375 18763.001953125 10843.9990234375 M 18743 10843.9990234375 C 18744.65234375 10843.9990234375 18745.998046875 10842.654296875 18745.998046875 10841.0009765625 C 18745.998046875 10839.3447265625 18744.65234375 10837.998046875 18743 10837.998046875 C 18741.34765625 10837.998046875 18740.001953125 10839.3447265625 18740.001953125 10841.0009765625 C 18740.001953125 10842.654296875 18741.34765625 10843.9990234375 18743 10843.9990234375 M 18782.998046875 10824.001953125 C 18784.654296875 10824.001953125 18786.001953125 10822.6552734375 18786.001953125 10820.9990234375 C 18786.001953125 10819.345703125 18784.654296875 10818.0009765625 18782.998046875 10818.0009765625 C 18781.345703125 10818.0009765625 18780 10819.345703125 18780 10820.9990234375 C 18780 10822.6552734375 18781.345703125 10824.001953125 18782.998046875 10824.001953125 M 18763.001953125 10824.001953125 C 18764.654296875 10824.001953125 18766 10822.6552734375 18766 10820.9990234375 C 18766 10819.345703125 18764.654296875 10818.0009765625 18763.001953125 10818.0009765625 C 18761.345703125 10818.0009765625 18759.998046875 10819.345703125 18759.998046875 10820.9990234375 C 18759.998046875 10822.6552734375 18761.345703125 10824.001953125 18763.001953125 10824.001953125 M 18743 10824.001953125 C 18744.65234375 10824.001953125 18745.998046875 10822.6552734375 18745.998046875 10820.9990234375 C 18745.998046875 10819.345703125 18744.65234375 10818.0009765625 18743 10818.0009765625 C 18741.34765625 10818.0009765625 18740.001953125 10819.345703125 18740.001953125 10820.9990234375 C 18740.001953125 10822.6552734375 18741.34765625 10824.001953125 18743 10824.001953125 M 18782.998046875 10804 C 18784.654296875 10804 18786.001953125 10802.6552734375 18786.001953125 10801.001953125 C 18786.001953125 10799.345703125 18784.654296875 10797.9990234375 18782.998046875 10797.9990234375 C 18781.345703125 10797.9990234375 18780 10799.345703125 18780 10801.001953125 C 18780 10802.6552734375 18781.345703125 10804 18782.998046875 10804 M 18763.001953125 10804 C 18764.654296875 10804 18766 10802.6552734375 18766 10801.001953125 C 18766 10799.345703125 18764.654296875 10797.9990234375 18763.001953125 10797.9990234375 C 18761.345703125 10797.9990234375 18759.998046875 10799.345703125 18759.998046875 10801.001953125 C 18759.998046875 10802.6552734375 18761.345703125 10804 18763.001953125 10804 M 18743 10804 C 18744.65234375 10804 18745.998046875 10802.6552734375 18745.998046875 10801.001953125 C 18745.998046875 10799.345703125 18744.65234375 10797.9990234375 18743 10797.9990234375 C 18741.34765625 10797.9990234375 18740.001953125 10799.345703125 18740.001953125 10801.001953125 C 18740.001953125 10802.6552734375 18741.34765625 10804 18743 10804 M 18782.998046875 10845.9990234375 C 18780.240234375 10845.9990234375 18778 10843.763671875 18778 10841.0009765625 C 18778 10838.2373046875 18780.240234375 10835.998046875 18782.998046875 10835.998046875 C 18785.76171875 10835.998046875 18788.001953125 10838.2373046875 18788.001953125 10841.0009765625 C 18788.001953125 10843.763671875 18785.76171875 10845.9990234375 18782.998046875 10845.9990234375 Z M 18763.001953125 10845.9990234375 C 18760.23828125 10845.9990234375 18757.998046875 10843.763671875 18757.998046875 10841.0009765625 C 18757.998046875 10838.2373046875 18760.23828125 10835.998046875 18763.001953125 10835.998046875 C 18765.759765625 10835.998046875 18768 10838.2373046875 18768 10841.0009765625 C 18768 10843.763671875 18765.759765625 10845.9990234375 18763.001953125 10845.9990234375 Z M 18743 10845.9990234375 C 18740.236328125 10845.9990234375 18738.001953125 10843.763671875 18738.001953125 10841.0009765625 C 18738.001953125 10838.2373046875 18740.236328125 10835.998046875 18743 10835.998046875 C 18745.763671875 10835.998046875 18747.998046875 10838.2373046875 18747.998046875 10841.0009765625 C 18747.998046875 10843.763671875 18745.763671875 10845.9990234375 18743 10845.9990234375 Z M 18782.998046875 10826.001953125 C 18780.240234375 10826.001953125 18778 10823.76171875 18778 10820.9990234375 C 18778 10818.240234375 18780.240234375 10816.0009765625 18782.998046875 10816.0009765625 C 18785.76171875 10816.0009765625 18788.001953125 10818.240234375 18788.001953125 10820.9990234375 C 18788.001953125 10823.76171875 18785.76171875 10826.001953125 18782.998046875 10826.001953125 Z M 18763.001953125 10826.001953125 C 18760.23828125 10826.001953125 18757.998046875 10823.76171875 18757.998046875 10820.9990234375 C 18757.998046875 10818.240234375 18760.23828125 10816.0009765625 18763.001953125 10816.0009765625 C 18765.759765625 10816.0009765625 18768 10818.240234375 18768 10820.9990234375 C 18768 10823.76171875 18765.759765625 10826.001953125 18763.001953125 10826.001953125 Z M 18743 10826.001953125 C 18740.236328125 10826.001953125 18738.001953125 10823.76171875 18738.001953125 10820.9990234375 C 18738.001953125 10818.240234375 18740.236328125 10816.0009765625 18743 10816.0009765625 C 18745.763671875 10816.0009765625 18747.998046875 10818.240234375 18747.998046875 10820.9990234375 C 18747.998046875 10823.76171875 18745.763671875 10826.001953125 18743 10826.001953125 Z M 18782.998046875 10806 C 18780.240234375 10806 18778 10803.7607421875 18778 10801.001953125 C 18778 10798.2392578125 18780.240234375 10795.9990234375 18782.998046875 10795.9990234375 C 18785.76171875 10795.9990234375 18788.001953125 10798.2392578125 18788.001953125 10801.001953125 C 18788.001953125 10803.7607421875 18785.76171875 10806 18782.998046875 10806 Z M 18763.001953125 10806 C 18760.23828125 10806 18757.998046875 10803.7607421875 18757.998046875 10801.001953125 C 18757.998046875 10798.2392578125 18760.23828125 10795.9990234375 18763.001953125 10795.9990234375 C 18765.759765625 10795.9990234375 18768 10798.2392578125 18768 10801.001953125 C 18768 10803.7607421875 18765.759765625 10806 18763.001953125 10806 Z M 18743 10806 C 18740.236328125 10806 18738.001953125 10803.7607421875 18738.001953125 10801.001953125 C 18738.001953125 10798.2392578125 18740.236328125 10795.9990234375 18743 10795.9990234375 C 18745.763671875 10795.9990234375 18747.998046875 10798.2392578125 18747.998046875 10801.001953125 C 18747.998046875 10803.7607421875 18745.763671875 10806 18743 10806 Z" stroke="none" fill="#00c7b1"/>
  </g>
</svg>
