<svg xmlns="http://www.w3.org/2000/svg" width="42.166" height="45.466" viewBox="0 0 42.166 45.466">
  <path id="home-icon-managers" d="M18147.848,9575.652a.681.681,0,0,1-.639-.729l.725-10.545a3.588,3.588,0,0,0-2.951-3.717l-8.309-1.33-3.994,12.932a.675.675,0,0,1-.687.479.686.686,0,0,1-.639-.552l-1.6-8.317a3.922,3.922,0,0,1,.232-2.245l1.453-3.443a.685.685,0,1,1,1.262.532l-1.453,3.444a2.514,2.514,0,0,0-.15,1.452l1.09,5.626,3.26-10.572-2.445-3.7a5.989,5.989,0,0,1-8.541,0l-2.445,3.7,3.262,10.572,1.088-5.626a2.514,2.514,0,0,0-.15-1.452l-1.453-3.444a.685.685,0,0,1,1.262-.532l1.453,3.443a3.893,3.893,0,0,1,.232,2.245l-1.6,8.317a.682.682,0,0,1-.633.552.667.667,0,0,1-.691-.479l-3.99-12.932-8.309,1.33a3.588,3.588,0,0,0-2.957,3.717l.725,10.545a.68.68,0,0,1-.633.729.193.193,0,0,1-.051,0,.688.688,0,0,1-.682-.638l-.725-10.55a4.989,4.989,0,0,1,4.1-5.16l8.6-1.376,2.637-3.99a13.937,13.937,0,0,1-2.49-5.042,3.2,3.2,0,0,1-2.729-1.749c-.027-.05-.051-.1-.078-.146s-.045-.1-.068-.155a3.5,3.5,0,0,1-.281-.961,23.532,23.532,0,0,1-.205-3.033.549.549,0,0,1-.01-.1,11.1,11.1,0,1,1,22.188,0,23.787,23.787,0,0,1-.205,3.139,3.46,3.46,0,0,1-.492,1.353,3.2,3.2,0,0,1-2.674,1.653,13.908,13.908,0,0,1-2.492,5.042l2.637,3.99,8.6,1.376a4.988,4.988,0,0,1,4.1,5.16l-.725,10.55a.69.69,0,0,1-.684.638A.141.141,0,0,1,18147.848,9575.652Zm-25.658-27.635c1.084,4.4,3.713,7.37,6.541,7.37s5.451-2.966,6.537-7.37a.687.687,0,0,1,.773-.515,1.527,1.527,0,0,0,.3.032,1.825,1.825,0,0,0,.2-3.64,12.429,12.429,0,0,1-3.025.378c-4.309,0-8.238-2.286-9.779-5.693a.683.683,0,0,1,1.244-.565c1.326,2.925,4.756,4.888,8.535,4.888a10.964,10.964,0,0,0,2.734-.346c.018,0,.031-.01.049-.014h.014a.006.006,0,0,1,.01,0,.618.618,0,0,1,.205-.027,3.149,3.149,0,0,1,1.912.792c.006-.187.02-.364.02-.551a9.732,9.732,0,1,0-19.445-.1.8.8,0,0,1,.01.1c0,.178.008.351.014.523a3.069,3.069,0,0,1,.729-.469.684.684,0,1,1,.578,1.239,1.829,1.829,0,0,0,.783,3.484,1.633,1.633,0,0,0,.3-.032.634.634,0,0,1,.113-.01A.682.682,0,0,1,18122.189,9548.018Zm15.459,21.9a.683.683,0,1,1,0-1.366h4.674a.683.683,0,1,1,0,1.366Z" transform="translate(-18107.645 -9530.691)" fill="#00c7b1" stroke="rgba(0,0,0,0)" stroke-miterlimit="10" stroke-width="1"/>
</svg>
