<svg xmlns="http://www.w3.org/2000/svg" width="39.257" height="51.446" viewBox="0 0 39.257 51.446">
  <path id="home-icon-grow" d="M1073.845,668.359a2.359,2.359,0,0,1-.332,1.2,2.9,2.9,0,0,1-.814.875,3.712,3.712,0,0,1-1.079.527c-.086.026-.175.038-.263.058v.247a1,1,0,0,1-2,0v-.246c-.085-.02-.174-.032-.257-.057a3.753,3.753,0,0,1-1.085-.529,2.843,2.843,0,0,1-.813-.875,1,1,0,1,1,1.727-1.01.87.87,0,0,0,.251.259,1.77,1.77,0,0,0,.5.242,2.485,2.485,0,0,0,1.352,0,1.785,1.785,0,0,0,.5-.237.924.924,0,0,0,.257-.265.381.381,0,0,0,.057-.188c0-.518-.327-.748-1.748-1.229-1.285-.436-3.228-1.094-3.228-3.3a2.369,2.369,0,0,1,.335-1.2,2.83,2.83,0,0,1,.814-.873,3.669,3.669,0,0,1,1.077-.525c.085-.026.175-.038.262-.058v-.241a1,1,0,0,1,2,0v.241c.086.02.175.031.258.057a3.664,3.664,0,0,1,1.084.527,2.862,2.862,0,0,1,.811.871,1,1,0,0,1-1.721,1.018.918.918,0,0,0-.256-.264,1.705,1.705,0,0,0-.5-.239,2.464,2.464,0,0,0-1.357,0,1.69,1.69,0,0,0-.5.238.866.866,0,0,0-.252.26.37.37,0,0,0-.059.19c0,.674.421.919,1.869,1.409C1072.049,665.68,1073.845,666.288,1073.845,668.359Zm16.141,7.038a1,1,0,0,1-1,1h-9.928c-.033,0-.06-.015-.092-.018s-.063.018-.1.018h-17.55c-.018,0-.033-.008-.051-.009s-.031.009-.048.009h-9.491a1,1,0,0,1,0-2h8.489l-1.606-16.621h-.743a1,1,0,0,1-.994-.888l-.72-6.442a1,1,0,0,1,.994-1.111h11.932c-.132-9.912-3.955-16.565-10.816-18.75a1,1,0,1,1,.607-1.906,15.432,15.432,0,0,1,6.1,3.635,5.119,5.119,0,0,0-1.36-3.734c-1.8-1.775-5.45-2.105-10.574-.963.759,2.34,3.259,8.08,9.239,7.309a1,1,0,1,1,.254,1.984,10.412,10.412,0,0,1-1.32.085c-6.436,0-9.6-6.328-10.4-9.893a1,1,0,0,1,.734-1.188c6.468-1.619,11-1.2,13.48,1.255,2.733,2.705,1.8,6.747,1.763,6.918a.96.96,0,0,1-.093.2,21.8,21.8,0,0,1,3.763,8.9,16.58,16.58,0,0,1,2.915-4.523c-.174-1.04-.49-4.287,1.828-6.582,2.475-2.45,7.011-2.873,13.481-1.255a1,1,0,0,1,.733,1.188c-.795,3.565-3.96,9.893-10.4,9.893a10.243,10.243,0,0,1-1.32-.085,1,1,0,1,1,.254-1.984c5.981.771,8.482-4.969,9.241-7.309-5.126-1.142-8.77-.812-10.575.963a4.95,4.95,0,0,0-1.352,3.368,18.469,18.469,0,0,1,6.092-3.269,1,1,0,1,1,.608,1.906,15.036,15.036,0,0,0-10.855,13.836h11.921a1,1,0,0,1,.994,1.11l-.717,6.442a1,1,0,0,1-.995.889h-.743l-1.6,16.621h9.016A1,1,0,0,1,1089.986,675.4Zm-31.718-24.062.5,4.441h22.66l.495-4.441Zm19.693,23.062,1.6-16.621h-18.945l1.607,16.621Z" transform="translate(-1050.729 -624.951)" fill="#00c7b1"/>
</svg>
