<svg xmlns="http://www.w3.org/2000/svg" width="46.424" height="45.461" viewBox="0 0 46.424 45.461">
  <path id="home-icon-market-makers" d="M19221.252,9150.578a.708.708,0,1,1,0-1.416h23.8a.708.708,0,0,1,0,1.416Zm2.828-3.537a.708.708,0,0,1,0-1.416h8.359v-30.494a3.3,3.3,0,0,1-2.242-1.72l-9.775,2.647,7.969,18.659a.657.657,0,0,1,.063.425c0,.024,0,.049-.01.073-.01.009-.01.019-.014.028a.12.12,0,0,1-.02.059.043.043,0,0,1-.01.019,9.722,9.722,0,0,1-17.891,0,.023.023,0,0,1-.014-.019.18.18,0,0,1-.02-.059.431.431,0,0,1-.025-.1.685.685,0,0,1,.064-.425l7.711-18.06-3.416.923a.763.763,0,0,1-.184.024.708.708,0,0,1-.184-1.392l15.383-4.171a.981.981,0,0,1-.01-.169,3.327,3.327,0,0,1,6.281-1.532l15.389-4.175a.71.71,0,0,1,.367,1.372l-4.045,1.1,7.982,18.674a.681.681,0,0,1,.01.575s0,.019-.01.023a9.713,9.713,0,0,1-17.865.034.148.148,0,0,1-.035-.058l-.043-.136a.863.863,0,0,1,0-.246.691.691,0,0,1,.023-.1.324.324,0,0,1,.039-.1l7.717-18.084-9.152,2.484a.953.953,0,0,1,.01.164,3.339,3.339,0,0,1-2.625,3.262v30.489h8.361a.708.708,0,0,1,0,1.416Zm-4.625-7.215a8.283,8.283,0,0,0,7.152-4.094H19212.3A8.287,8.287,0,0,0,19219.455,9139.826Zm-7.234-5.51h14.459l-7.23-16.924Zm34.625-1.914a8.3,8.3,0,0,0,7.158-4.083h-14.314A8.3,8.3,0,0,0,19246.846,9132.4Zm-7.229-5.5h14.463l-7.234-16.924Zm-8.371-15.247a1.63,1.63,0,0,0-.014.218,1.931,1.931,0,0,0,1.918,1.914,1.8,1.8,0,0,0,.705-.141,1.9,1.9,0,0,0,1.2-1.551c0-.073.01-.146.01-.223a1.887,1.887,0,0,0-.387-1.15,1.914,1.914,0,0,0-3.432.933Z" transform="translate(-19209.941 -9105.617)" fill="#00c7b1" stroke="rgba(0,0,0,0)" stroke-miterlimit="10" stroke-width="1"/>
</svg>
