<svg xmlns="http://www.w3.org/2000/svg" width="47.001" height="49.997" viewBox="0 0 47.001 49.997">
  <path id="icon-tight-spreads" d="M959.91,675.857a1,1,0,0,1-1-1v-5a1,1,0,0,1,2,0v5A1,1,0,0,1,959.91,675.857Zm8.769-1.356,15-18a1,1,0,0,0-.769-1.641h-7v-21a1,1,0,0,0-2,0v22a1,1,0,0,0,1,1h5.865L967.91,672.3,955.045,656.86h4.865a1,1,0,0,0,1-1v-7h7a1,1,0,0,0,.769-1.64l-15-18a1.035,1.035,0,0,0-1.536,0l-15,18a1,1,0,0,0,.768,1.64h7v19a1,1,0,0,0,2,0v-20a1,1,0,0,0-1-1h-5.865l12.865-15.437,12.865,15.437H959.91a1,1,0,0,0-1,1v7h-6a1,1,0,0,0-.768,1.641l15,18a1,1,0,0,0,1.537,0Zm-6.769-40.644v-5a1,1,0,0,0-2,0v5a1,1,0,0,0,2,0Zm-10,39v-11a1,1,0,0,0-2,0v11a1,1,0,0,0,2,0Zm19-33v-13a1,1,0,0,0-2,0v13a1,1,0,0,0,2,0Z" transform="translate(-936.909 -625.86)" fill="#00c7b1"/>
</svg>
