<svg xmlns="http://www.w3.org/2000/svg" width="51.553" height="52.134" viewBox="0 0 51.553 52.134">
  <path id="icon-accurate-pricing" d="M19935.418,7595.01v-4.028a20.486,20.486,0,0,1-19.533-19.538l-3.742,0a1,1,0,1,1,0-2h3.742a20.5,20.5,0,0,1,19.533-19.543v-4.028a1,1,0,0,1,2,0v4.028a20.488,20.488,0,0,1,19.533,19.543h3.742a1,1,0,1,1,0,2h-3.742a20.477,20.477,0,0,1-19.533,19.543v4.028a1,1,0,0,1-2,0Zm-12.145-37.713a18.59,18.59,0,1,0,13.146-5.445A18.614,18.614,0,0,0,19923.273,7557.3Zm3.4,22.885a13.77,13.77,0,1,1,9.744,4.038A13.683,13.683,0,0,1,19926.676,7580.181Zm1.412-18.07a11.8,11.8,0,1,0,8.332-3.441A11.729,11.729,0,0,0,19928.088,7562.111Zm7.264,16.3v-1.162a6.424,6.424,0,0,1-.686-.15,5.048,5.048,0,0,1-1.428-.691,3.817,3.817,0,0,1-1.047-1.127,1,1,0,1,1,1.723-1.012,1.763,1.763,0,0,0,.49.516,3.044,3.044,0,0,0,.848.4,3.938,3.938,0,0,0,2.205,0,2.908,2.908,0,0,0,.84-.406,1.821,1.821,0,0,0,.492-.511.965.965,0,0,0,.141-.5c0-1.112-.857-1.518-2.811-2.184-1.834-.621-4.35-1.468-4.35-4.333a2.957,2.957,0,0,1,.422-1.508,3.7,3.7,0,0,1,1.047-1.127,4.97,4.97,0,0,1,1.428-.691,6.422,6.422,0,0,1,.686-.15v-1.192a1,1,0,1,1,2,0v1.192a6.029,6.029,0,0,1,.686.15,4.8,4.8,0,0,1,1.428.7,3.7,3.7,0,0,1,1.047,1.122,1,1,0,1,1-1.723,1.012,1.828,1.828,0,0,0-.492-.511,2.97,2.97,0,0,0-.84-.406,3.93,3.93,0,0,0-2.205,0,2.844,2.844,0,0,0-.848.406,1.766,1.766,0,0,0-.49.511.978.978,0,0,0-.141.5c0,1.292.908,1.738,2.986,2.44,1.859.631,4.168,1.413,4.168,4.078a2.936,2.936,0,0,1-.42,1.513,3.743,3.743,0,0,1-1.043,1.117,4.858,4.858,0,0,1-1.428.7,6.029,6.029,0,0,1-.686.15v1.162a1,1,0,1,1-2,0Z" transform="translate(-19910.641 -7544.373)" fill="#00c7b1" stroke="rgba(0,0,0,0)" stroke-miterlimit="10" stroke-width="1"/>
</svg>
