<svg xmlns="http://www.w3.org/2000/svg" width="56.031" height="38.509" viewBox="0 0 56.031 38.509">
  <path id="home-icon-RIAs" d="M1042.157-114.711v-.006a1.17,1.17,0,0,1,1.157-1.157h.012a1.168,1.168,0,0,1,1.163,1.163,1.169,1.169,0,0,1-1.163,1.169A1.17,1.17,0,0,1,1042.157-114.711Zm52.3,3.327-4.013,4.013a.671.671,0,0,1-.489.2.691.691,0,0,1-.489-.2l-2.743-2.743,0,0-5.2,5.2.756.757a3.042,3.042,0,0,1,.888,2.2,3,3,0,0,1-.966,2.164,2.939,2.939,0,0,1-1.491.751h-.015a3.007,3.007,0,0,1,.61,1.808,3.017,3.017,0,0,1-.89,2.148,3.017,3.017,0,0,1-2.147.89,3.027,3.027,0,0,1-.988-.177,3.005,3.005,0,0,1-.868,1.922,3.017,3.017,0,0,1-2.147.89,3.04,3.04,0,0,1-.98-.174v0a3,3,0,0,1-.876,1.914,3.017,3.017,0,0,1-2.146.888,3.017,3.017,0,0,1-2.146-.888l-1.49-1.491h0a1.658,1.658,0,0,1-.167.191l-1.324,1.324a3.028,3.028,0,0,1-2.146.882,3.018,3.018,0,0,1-2.146-.882,3.007,3.007,0,0,1-.876-1.914,2.832,2.832,0,0,1-.978.167,3.017,3.017,0,0,1-2.146-.888,2.985,2.985,0,0,1-.882-1.914,2.833,2.833,0,0,1-.978.167,3.017,3.017,0,0,1-2.146-.888,3.017,3.017,0,0,1-.888-2.146,3.029,3.029,0,0,1,.59-1.8,3.007,3.007,0,0,1-1.562-.829,3.018,3.018,0,0,1-.888-2.146,3.018,3.018,0,0,1,.888-2.146l.781-.781-5.2-5.193-2.749,2.743a.667.667,0,0,1-.483.2.671.671,0,0,1-.489-.2l-4.013-4.013a.688.688,0,0,1,0-.972.677.677,0,0,1,.972,0h.006l3.524,3.518,2.743-2.743.471-.471a.652.652,0,0,1,.131-.185l9.468-9.474.483-.483a.786.786,0,0,1,.2-.143l.322-.322.066-.066-3.524-3.524a.694.694,0,0,1,0-.978.694.694,0,0,1,.978,0l4.013,4.013a.686.686,0,0,1,.2.489.686.686,0,0,1-.2.489l-.549.549,1.109,1.1a3.27,3.27,0,0,0,2.325.96H1071.7a3.28,3.28,0,0,0,2.325-.96l1.115-1.1-.543-.543a.686.686,0,0,1-.2-.489.686.686,0,0,1,.2-.489l4.013-4.013a.7.7,0,0,1,.978,0,.7.7,0,0,1,0,.978l-3.524,3.524.054.054.477.477,10.732,10.732h0l2.623,2.623,3.524-3.518h.006a.677.677,0,0,1,.972,0A.687.687,0,0,1,1094.453-111.384Zm-28.113-6.869a3,3,0,0,0-2.129.882l-5.283,5.283a.473.473,0,0,0-.137.435.473.473,0,0,0,.274.358,4,4,0,0,0,4.537-.787l1.956-1.95a.662.662,0,0,1,.483-.2l4.317-.024h.018a4.4,4.4,0,0,1,3.083,1.276l3.273,3.273a4,4,0,0,0,.736-2.318,4,4,0,0,0-1.181-2.85.69.69,0,0,1,0-.976.69.69,0,0,1,.976,0,5.373,5.373,0,0,1,1.585,3.827,5.366,5.366,0,0,1-1.13,3.3l2.827,2.827,5.2-5.2-9.629-9.629-1.121,1.115a4.662,4.662,0,0,1-3.291,1.353h-5.36Zm-.644,24.064a.085.085,0,0,1-.018-.024l-.411-.411a1.648,1.648,0,0,0-.954-.3,1.656,1.656,0,0,0-.978.322,1.315,1.315,0,0,0-.179.149l-1.383,1.383a1.661,1.661,0,0,0,.042,2.3,1.662,1.662,0,0,0,2.343,0l1.324-1.324a1.669,1.669,0,0,0,.167-.191A1.66,1.66,0,0,0,1065.7-94.189Zm-7.882.775a1.7,1.7,0,0,0,2.343,0l2.051-2.051.072-.066.066-.066h0l.507-.507a1.753,1.753,0,0,0,.37-.566,1.722,1.722,0,0,0,.113-.608,1.646,1.646,0,0,0-.483-1.169,1.651,1.651,0,0,0-1.175-.489,1.722,1.722,0,0,0-.608.113,1.6,1.6,0,0,0-.561.376l-.507.507-2.188,2.182a1.66,1.66,0,0,0-.483,1.175A1.646,1.646,0,0,0,1057.814-93.414Zm-6.344-8.58a1.622,1.622,0,0,0,.483,1.169,1.7,1.7,0,0,0,2.343,0l1.413-1.407.972-.978.3-.3a1.652,1.652,0,0,0,.489-1.175,1.628,1.628,0,0,0-.489-1.169,1.628,1.628,0,0,0-1.169-.489,1.651,1.651,0,0,0-1.175.489l-.3.3-.972.978-.113.107c-.012.012-.024.03-.036.042a.106.106,0,0,1-.03.024l-1.234,1.234A1.635,1.635,0,0,0,1051.47-101.994Zm2.343,5.944a1.7,1.7,0,0,0,2.343,0l.686-.68,2.182-2.188.507-.507.471-.465.215-.221a1.647,1.647,0,0,0,.483-1.169,1.671,1.671,0,0,0-.483-1.175,1.661,1.661,0,0,0-1.175-.483,1.647,1.647,0,0,0-1.169.483l-.215.221-.978.972-1.413,1.413h0l-1.454,1.455a1.645,1.645,0,0,0-.483,1.175A1.621,1.621,0,0,0,1053.813-96.049Zm27.969-5.939a1.609,1.609,0,0,0-.483-1.2L1072.481-112a3,3,0,0,0-2.1-.87h-.012l-4.031.018-1.753,1.753a5.4,5.4,0,0,1-6.105,1.061,1.864,1.864,0,0,1-1.043-1.371,1.877,1.877,0,0,1,.519-1.652l5.187-5.187h-1.574a4.666,4.666,0,0,1-3.3-1.353l-1.115-1.1-9.617,9.617h0l3.13,3.13c-.006-.1-.006-.2-.006-.292a5.375,5.375,0,0,1,1.58-3.828.7.7,0,0,1,.978,0,.7.7,0,0,1,0,.978,3.985,3.985,0,0,0-1.181,2.85,4,4,0,0,0,.733,2.319l.054-.048.054-.06.793-.793a3.017,3.017,0,0,1,2.146-.888,3.017,3.017,0,0,1,2.146.888,3.017,3.017,0,0,1,.888,2.146,2.669,2.669,0,0,1-.024.382c.072-.006.143-.006.215-.006a3.017,3.017,0,0,1,2.146.888,3,3,0,0,1,.894,2.146,2.833,2.833,0,0,1-.167.978,2.992,2.992,0,0,1,1.908.876,3.017,3.017,0,0,1,.888,2.146,2.977,2.977,0,0,1-.161.978,3.028,3.028,0,0,1,1.908.876,3.028,3.028,0,0,1,.888,2.146,3.047,3.047,0,0,1-.072.662l1.813,1.813a1.7,1.7,0,0,0,2.343,0,1.645,1.645,0,0,0,0-2.337l-1.212-1.217-2.717-2.718a.689.689,0,0,1,0-.975.689.689,0,0,1,.976,0l4.615,4.615a1.7,1.7,0,0,0,2.342,0,1.643,1.643,0,0,0,.485-1.171,1.646,1.646,0,0,0-.484-1.17l-1.556-1.556-1.137-1.137h0l-1.923-1.923a.69.69,0,0,1,0-.976.69.69,0,0,1,.976,0l3.061,3.061,1.554,1.554h0l.683.683a1.657,1.657,0,0,0,2.342,0,1.645,1.645,0,0,0,.485-1.172,1.644,1.644,0,0,0-.485-1.17l-1.5-1.5,0,0-1.872-1.872v0l-1.923-1.924a.69.69,0,0,1,0-.976.69.69,0,0,1,.975,0l1.918,1.918s.006,0,.009.006l1.872,1.872a1.7,1.7,0,0,0,2.343.083A1.622,1.622,0,0,0,1081.783-101.988Zm8.168-11.555a1.165,1.165,0,0,0,1.163-1.169v-.012a1.167,1.167,0,0,0-1.151-1.151h-.012a1.168,1.168,0,0,0-1.163,1.163A1.169,1.169,0,0,0,1089.951-113.543Z" transform="translate(-1038.623 127.427)" fill="#00c7b1"/>
</svg>
