<svg xmlns="http://www.w3.org/2000/svg" width="51.873" height="27.777" viewBox="0 0 51.873 27.777">
  <path id="home-icon-investors" d="M18100.166,9651.205l.75-10.19a3.775,3.775,0,0,0-3.6-3.78h-12.9a3.233,3.233,0,0,0-.939.159,7.092,7.092,0,0,0,.113-1.194c0-.155-.014-.3-.023-.455a5.456,5.456,0,0,1,.826-.095h12.949a5.375,5.375,0,0,1,5.16,5.393v.059l-.74,10.1Zm-4.238,0,.631-8.537a.79.79,0,1,1,1.576.118l-.623,8.419Zm-9.074,0,.246-3.33a3.774,3.774,0,0,0-3.6-3.78h-12.906a3.768,3.768,0,0,0-3.566,3.816c0,.05,0,.1,0,.173l.232,3.121h-1.586l-.223-3.021a1.96,1.96,0,0,1,0-.3,5.363,5.363,0,0,1,5.129-5.375h12.947a5.377,5.377,0,0,1,5.162,5.393v.06l-.242,3.244Zm-4.256,0,.186-2.521a.79.79,0,1,1,1.576.113l-.176,2.408Zm-12.686,0-.176-2.408a.79.79,0,1,1,1.576-.113l.186,2.521Zm-13.328,0-.623-8.419a.79.79,0,1,1,1.576-.118l.633,8.537Zm-4.217,0-.74-10.1a.3.3,0,0,1,0-.059,5.371,5.371,0,0,1,5.143-5.393h12.947a5.179,5.179,0,0,1,.85.1c-.014.149-.023.3-.023.45a6.106,6.106,0,0,0,.119,1.2,3.258,3.258,0,0,0-.967-.164h-12.908a3.772,3.772,0,0,0-3.58,3.78l.75,10.19Zm19.781-15.006a4.913,4.913,0,1,1,4.916,4.91A4.918,4.918,0,0,1,18072.148,9636.2Zm1.586,0a3.33,3.33,0,1,0,3.33-3.331A3.335,3.335,0,0,0,18073.734,9636.2Zm12.23-6.86a4.911,4.911,0,1,1,4.91,4.911A4.913,4.913,0,0,1,18085.965,9629.339Zm1.58,0a3.33,3.33,0,1,0,3.33-3.33A3.335,3.335,0,0,0,18087.545,9629.339Zm-29.217,0a4.913,4.913,0,1,1,4.916,4.911A4.917,4.917,0,0,1,18058.328,9629.339Zm1.586,0a3.33,3.33,0,1,0,3.33-3.33A3.335,3.335,0,0,0,18059.914,9629.339Z" transform="translate(-18051.123 -9623.928)" fill="#00c7b1" stroke="rgba(0,0,0,0)" stroke-miterlimit="10" stroke-width="1"/>
</svg>
