<svg xmlns="http://www.w3.org/2000/svg" xmlns:xlink="http://www.w3.org/1999/xlink" width="175.918" height="171.654" viewBox="0 0 175.918 171.654">
  <defs>
    <linearGradient id="linear-gradient" x1="0.023" y1="1" x2="1.019" y2="1" gradientUnits="objectBoundingBox">
      <stop offset="0" stop-color="#00c7b1"/>
      <stop offset="1" stop-color="#ff6a39"/>
    </linearGradient>
  </defs>
  <path id="line-1" d="M496.919,2137.492a1,1,0,0,1-.114-.007,58.382,58.382,0,0,1-9.953-2.042,1,1,0,0,1,.568-1.918,56.365,56.365,0,0,0,9.611,1.972,1,1,0,0,1-.112,1.994Zm-19.114-5.577a.994.994,0,0,1-.424-.095,83.422,83.422,0,0,1-8.87-4.862,1,1,0,1,1,1.063-1.694,81.436,81.436,0,0,0,8.656,4.745,1,1,0,0,1-.425,1.906Zm-16.957-10.534a1,1,0,0,1-.61-.208c-2.544-1.961-5.144-4.134-7.728-6.459a1,1,0,0,1,1.338-1.487c2.546,2.291,5.106,4.431,7.611,6.362a1,1,0,0,1-.611,1.792Zm-14.891-13.329a1,1,0,0,1-.712-.3c-2.251-2.285-4.563-4.75-6.87-7.328a1,1,0,0,1,1.49-1.334c2.287,2.554,4.576,5,6.8,7.258a1,1,0,0,1-.712,1.7ZM432.6,2093.178a1,1,0,0,1-.77-.362c-2.043-2.464-4.156-5.1-6.28-7.822a1,1,0,0,1,1.578-1.229c2.112,2.71,4.212,5.326,6.242,7.774a1,1,0,0,1-.769,1.638Zm-12.31-15.762a1,1,0,0,1-.8-.4c-1.889-2.548-3.871-5.274-5.891-8.1a1,1,0,0,1,1.628-1.162c2.012,2.82,3.987,5.537,5.869,8.074a1,1,0,0,1-.8,1.6Zm-11.63-16.271a1,1,0,0,1-.823-.43c-1.768-2.551-3.62-5.251-5.662-8.254a1,1,0,1,1,1.654-1.124c2.038,3,3.887,5.693,5.651,8.239a1,1,0,0,1-.821,1.57ZM397.4,2044.613a1,1,0,0,1-.831-.442q-1.725-2.565-3.435-5.113L391,2035.869a1,1,0,1,1,1.66-1.115l2.142,3.19q1.71,2.546,3.434,5.111a1,1,0,0,1-.829,1.558Zm-11.168-16.594a1,1,0,0,1-.829-.439c-2.08-3.067-3.926-5.764-5.643-8.246a1,1,0,0,1,1.644-1.138c1.721,2.487,3.571,5.189,5.654,8.262a1,1,0,0,1-.827,1.561Zm-11.4-16.432a1,1,0,0,1-.814-.418c-2.086-2.912-4.018-5.542-5.9-8.041a1,1,0,0,1,1.6-1.205c1.9,2.512,3.838,5.156,5.934,8.081a1,1,0,0,1-.812,1.583Zm-12.082-15.934a1,1,0,0,1-.776-.368c-2.228-2.734-4.407-5.273-6.479-7.546a1,1,0,1,1,1.478-1.347c2.1,2.3,4.3,4.868,6.551,7.63a1,1,0,0,1-.775,1.632Zm-13.53-14.706a1,1,0,0,1-.679-.266,72.649,72.649,0,0,0-7.639-6.236,1,1,0,0,1,1.146-1.639,74.64,74.64,0,0,1,7.852,6.408,1,1,0,0,1-.68,1.734Zm-16.479-11.137a1,1,0,0,1-.367-.07,25.533,25.533,0,0,0-9.376-1.9,1,1,0,0,1,0-2,27.52,27.52,0,0,1,10.112,2.042,1,1,0,0,1-.368,1.93Z" transform="translate(-322 -1965.838)" fill="url(#linear-gradient)"/>
</svg>
