<svg xmlns="http://www.w3.org/2000/svg" xmlns:xlink="http://www.w3.org/1999/xlink" width="175.918" height="171.654" viewBox="0 0 175.918 171.654">
  <defs>
    <linearGradient id="linear-gradient" x1="0.031" y1="1" x2="1.064" y2="1" gradientUnits="objectBoundingBox">
      <stop offset="0" stop-color="#00c7b1"/>
      <stop offset="1" stop-color="#ff6a39"/>
    </linearGradient>
  </defs>
  <path id="line-3" d="M323,2137.838a1,1,0,0,1,0-2,25.535,25.535,0,0,0,9.376-1.9,1,1,0,1,1,.735,1.86A27.52,27.52,0,0,1,323,2137.838Zm18.478-6.788a1,1,0,0,1-.574-1.82,72.637,72.637,0,0,0,7.639-6.236,1,1,0,0,1,1.359,1.467,74.62,74.62,0,0,1-7.852,6.407A1,1,0,0,1,341.478,2131.05Zm14.759-13.439a1,1,0,0,1-.739-1.673c2.071-2.274,4.251-4.812,6.479-7.546a1,1,0,1,1,1.55,1.263c-2.251,2.762-4.455,5.329-6.551,7.63A1,1,0,0,1,356.237,2117.61Zm12.676-15.461a1,1,0,0,1-.8-1.6c1.887-2.5,3.818-5.129,5.9-8.041a1,1,0,1,1,1.626,1.165c-2.1,2.926-4.037,5.569-5.934,8.081A1,1,0,0,1,368.913,2102.149Zm11.672-16.239a1,1,0,0,1-.821-1.569c1.717-2.481,3.563-5.178,5.643-8.246a1,1,0,0,1,1.655,1.123c-2.083,3.073-3.933,5.775-5.654,8.261A1,1,0,0,1,380.585,2085.91Zm11.24-16.546a1,1,0,0,1-.829-1.558l2.142-3.189q1.71-2.547,3.435-5.113a1,1,0,0,1,1.66,1.116q-1.725,2.564-3.434,5.112l-2.142,3.19A1,1,0,0,1,391.825,2069.364ZM403,2052.776a1,1,0,0,1-.826-1.562c2.042-3,3.893-5.7,5.662-8.254a1,1,0,0,1,1.644,1.139c-1.765,2.546-3.613,5.241-5.651,8.239A1,1,0,0,1,403,2052.776Zm11.406-16.428a1,1,0,0,1-.813-1.581c2.019-2.83,4-5.557,5.891-8.1a1,1,0,1,1,1.606,1.191c-1.882,2.538-3.857,5.254-5.869,8.074A1,1,0,0,1,414.407,2036.348Zm11.929-16.053a1,1,0,0,1-.788-1.615c2.125-2.726,4.238-5.358,6.28-7.821a1,1,0,1,1,1.54,1.276c-2.03,2.448-4.13,5.064-6.242,7.774A1,1,0,0,1,426.336,2020.295Zm12.784-15.378a1,1,0,0,1-.745-1.667c2.308-2.578,4.619-5.043,6.87-7.328a1,1,0,0,1,1.425,1.4c-2.229,2.262-4.518,4.7-6.8,7.258A1,1,0,0,1,439.119,2004.917Zm14.061-14.212a1,1,0,0,1-.669-1.743c2.583-2.325,5.183-4.5,7.728-6.459a1,1,0,0,1,1.221,1.584c-2.5,1.93-5.065,4.071-7.611,6.362A1,1,0,0,1,453.18,1990.705Zm15.863-12.141a1,1,0,0,1-.532-1.847,83.444,83.444,0,0,1,8.87-4.862,1,1,0,0,1,.849,1.811,81.416,81.416,0,0,0-8.656,4.745A1,1,0,0,1,469.043,1978.565Zm18.092-8.374a1,1,0,0,1-.284-1.959,58.382,58.382,0,0,1,9.953-2.042,1,1,0,1,1,.226,1.987,56.377,56.377,0,0,0-9.611,1.972A1,1,0,0,1,487.135,1970.191Z" transform="translate(-322 -1966.183)" fill="url(#linear-gradient)"/>
</svg>
