<svg xmlns="http://www.w3.org/2000/svg" xmlns:xlink="http://www.w3.org/1999/xlink" width="171.988" height="2" viewBox="0 0 171.988 2">
  <defs>
    <linearGradient id="linear-gradient" x1="0.031" y1="1" x2="1.06" y2="1" gradientUnits="objectBoundingBox">
      <stop offset="0" stop-color="#00c7b1"/>
      <stop offset="1" stop-color="#ff6a39"/>
    </linearGradient>
  </defs>
  <path id="line-2" d="M343,1967.838a1,1,0,0,1,0-2h10a1,1,0,1,1,0,2Zm-10,0H323a1,1,0,0,1,0-2h10a1,1,0,1,1,0,2Zm30,0a1,1,0,0,1,0-2h10a1,1,0,0,1,0,2Zm20,0a1,1,0,0,1,0-2h10a1,1,0,0,1,0,2Zm20.005,0a1,1,0,0,1,0-2h10a1,1,0,0,1,0,2Zm19.993,0a1,1,0,0,1,0-2h10a1,1,0,0,1,0,2Zm20,0a1,1,0,1,1,0-2h10a1,1,0,0,1,0,2Zm20,0a1,1,0,0,1,0-2h10a1,1,0,1,1,0,2Zm29.991,0h-10a1,1,0,0,1,0-2h10a1,1,0,0,1,0,2Z" transform="translate(-322 -1965.838)" fill="url(#linear-gradient)"/>
</svg>
